<?xml version="1.0" encoding="UTF-8"?>
<svg id="a" data-name="Layer 1" xmlns="http://www.w3.org/2000/svg" viewBox="0 0 216 54.22">
  <g>
    <polygon points="29.83 14.01 41.48 14.81 41.48 6.77 29.83 4.3 29.83 14.01" style="fill: #425497;"/>
    <polygon points="28.62 13.93 28.62 4.04 9.57 0 9.57 12.62 28.62 13.93" style="fill: #425497;"/>
    <polygon points="41.48 16 29.83 15.54 29.83 24.49 41.48 23.72 41.48 16" style="fill: #425497;"/>
    <polygon points="28.62 35.47 28.62 26.14 9.58 27.95 9.58 39.35 28.62 35.47" style="fill: #425497;"/>
    <polygon points="29.83 26.02 29.83 46.06 41.48 41.64 41.48 24.91 29.83 26.02" style="fill: #425497;"/>
    <polygon points="28.62 15.49 9.58 14.74 9.58 25.83 28.62 24.57 28.62 15.49" style="fill: #425497;"/>
    <polygon points="28.62 37.02 9.59 41.47 9.59 53.74 28.62 46.52 28.62 37.02" style="fill: #425497;"/>
  </g>
  <polygon points="8.08 0 0 4.3 0 47.24 8.1 54.22 8.08 0" style="fill: #425497;"/>
  <g>
    <path d="M48.66,9.3h9.63c2.52,0,3.83,1.31,3.83,3.83v4.4c0,2.52-1.31,3.83-3.83,3.83h-7v7.09h-2.63V9.3ZM57.99,18.96c.99,0,1.5-.52,1.5-1.51v-4.24c0-1.01-.52-1.5-1.5-1.5h-6.7v7.25h6.7Z" style="fill: #425497;"/>
    <path d="M64.83,25.77v-8.05c0-1.82.86-2.68,2.68-2.68h4.46c1.82,0,2.68.86,2.68,2.68v8.05c0,1.82-.86,2.68-2.68,2.68h-4.46c-1.82,0-2.68-.86-2.68-2.68ZM67.71,26.77h4.06c.77,0,1.05-.29,1.05-1.05v-7.93c0-.77-.29-1.05-1.05-1.05h-4.06c-.75,0-1.03.29-1.03,1.05v7.93c0,.77.29,1.05,1.03,1.05Z" style="fill: #425497;"/>
    <path d="M77.28,25.77v-1.48h1.8v1.5c0,.75.29,1.03,1.05,1.03h3.72c.77,0,1.05-.29,1.05-1.03v-1.61c0-.82-.34-1.07-1.15-1.26l-3.68-.82c-1.57-.35-2.76-.82-2.76-2.74v-1.63c0-1.82.86-2.68,2.68-2.68h3.85c1.82,0,2.68.86,2.68,2.68v1.32h-1.82v-1.34c0-.75-.29-1.03-1.03-1.03h-3.49c-.75,0-1.03.29-1.03,1.03v1.4c0,.82.34,1.07,1.13,1.25l3.7.84c1.55.34,2.76.82,2.76,2.74v1.84c0,1.82-.86,2.68-2.68,2.68h-4.1c-1.82,0-2.68-.86-2.68-2.68Z" style="fill: #425497;"/>
    <path d="M92.3,16.71h-3.95v-1.67h9.75v1.67h-3.97v11.75h-1.84v-11.75Z" style="fill: #425497;"/>
    <path d="M102.09,15.04h2.38l4.66,13.41h-2.01l-1.23-3.66h-5.31l-1.23,3.66h-1.92l4.66-13.41ZM105.33,23.11l-2.09-6.28-2.11,6.28h4.2Z" style="fill: #425497;"/>
    <path d="M111.32,15.04h1.84v11.73h6.36v1.69h-8.2v-13.41Z" style="fill: #425497;"/>
    <path d="M128.55,24.62v-2.11h2.57v2.13c0,1.07.41,1.48,1.5,1.48h5.31c1.09,0,1.5-.41,1.5-1.48v-2.3c0-1.18-.49-1.53-1.64-1.81l-5.25-1.18c-2.24-.49-3.94-1.18-3.94-3.91v-2.33c0-2.6,1.23-3.83,3.83-3.83h5.5c2.6,0,3.83,1.23,3.83,3.83v1.89h-2.6v-1.92c0-1.07-.41-1.48-1.48-1.48h-4.98c-1.07,0-1.48.41-1.48,1.48v2c0,1.18.49,1.53,1.61,1.78l5.28,1.2c2.22.49,3.94,1.18,3.94,3.91v2.63c0,2.6-1.23,3.83-3.83,3.83h-5.86c-2.6,0-3.83-1.23-3.83-3.83Z" style="fill: #425497;"/>
    <path d="M148.71,23.76l-4.64-8.72h1.99l3.58,6.84,3.58-6.84h1.95l-4.64,8.72v4.69h-1.84v-4.69Z" style="fill: #425497;"/>
    <path d="M156.39,25.77v-1.48h1.8v1.5c0,.75.29,1.03,1.05,1.03h3.72c.77,0,1.05-.29,1.05-1.03v-1.61c0-.82-.35-1.07-1.15-1.26l-3.68-.82c-1.57-.35-2.76-.82-2.76-2.74v-1.63c0-1.82.86-2.68,2.68-2.68h3.85c1.82,0,2.68.86,2.68,2.68v1.32h-1.82v-1.34c0-.75-.29-1.03-1.03-1.03h-3.49c-.75,0-1.03.29-1.03,1.03v1.4c0,.82.35,1.07,1.13,1.25l3.7.84c1.55.34,2.76.82,2.76,2.74v1.84c0,1.82-.86,2.68-2.68,2.68h-4.1c-1.82,0-2.68-.86-2.68-2.68Z" style="fill: #425497;"/>
    <path d="M171.41,16.71h-3.95v-1.67h9.75v1.67h-3.97v11.75h-1.84v-11.75Z" style="fill: #425497;"/>
    <path d="M179.51,15.04h8.68v1.69h-6.84v4.02h5.69v1.69h-5.69v4.33h6.84v1.69h-8.68v-13.41Z" style="fill: #425497;"/>
    <path d="M190.9,15.04h2.17l4.16,9.18,4.18-9.18h2.17v13.41h-1.8v-10.42l-3.79,8.55h-1.51l-3.79-8.55v10.42h-1.76v-13.41Z" style="fill: #425497;"/>
    <path d="M206.53,25.77v-1.48h1.8v1.5c0,.75.29,1.03,1.05,1.03h3.72c.77,0,1.05-.29,1.05-1.03v-1.61c0-.82-.34-1.07-1.15-1.26l-3.68-.82c-1.57-.35-2.76-.82-2.76-2.74v-1.63c0-1.82.86-2.68,2.68-2.68h3.85c1.82,0,2.68.86,2.68,2.68v1.32h-1.82v-1.34c0-.75-.29-1.03-1.03-1.03h-3.49c-.75,0-1.03.29-1.03,1.03v1.4c0,.82.35,1.07,1.13,1.25l3.7.84c1.55.34,2.76.82,2.76,2.74v1.84c0,1.82-.86,2.68-2.68,2.68h-4.1c-1.82,0-2.68-.86-2.68-2.68Z" style="fill: #425497;"/>
  </g>
  <g>
    <path d="M51.1,37.31l-.05,2.98h-.82s.04-2.29.04-2.29c0-.45-.05-.77-.17-.95s-.33-.28-.63-.28c-.17,0-.33.03-.47.11-.14.07-.31.21-.49.4l-.05,2.97h-.81s.07-4.11.07-4.11h.81s0,.55,0,.55c.42-.41.83-.6,1.22-.6.52,0,.92.26,1.19.76.44-.49.9-.73,1.37-.72.4,0,.72.16.97.45s.37.74.36,1.34l-.04,2.42h-.81s.04-2.44.04-2.44c0-.34-.06-.6-.2-.79-.14-.18-.33-.28-.6-.28-.34,0-.65.16-.95.49Z" style="fill: #425497;"/>
    <path d="M57.5,37.83l-.03,1.74c0,.14.04.21.14.21.1,0,.25-.07.46-.21v.49c-.19.12-.34.19-.46.24s-.23.06-.35.06c-.35,0-.55-.15-.61-.42-.35.26-.72.39-1.11.38-.29,0-.52-.1-.71-.29-.19-.19-.28-.43-.27-.72,0-.26.1-.49.29-.69.19-.2.46-.36.8-.47l1.04-.34v-.22c.01-.49-.23-.74-.72-.75-.44,0-.88.21-1.3.66l.02-.89c.32-.37.78-.54,1.37-.53.44,0,.8.13,1.06.37.09.08.17.18.24.3.07.12.11.25.13.37.02.12.02.36.02.7ZM56.67,39.47l.02-1.22-.55.2c-.28.11-.48.21-.59.32-.12.11-.18.25-.18.41,0,.17.05.31.16.42.11.11.25.16.42.17.26,0,.5-.1.72-.3Z" style="fill: #425497;"/>
    <path d="M59.02,36.17h.81s-.07,4.11-.07,4.11h-.81s.07-4.11.07-4.11ZM59.45,34.45c.13,0,.25.05.34.14.09.09.14.21.14.34,0,.13-.05.24-.15.34s-.21.14-.35.14c-.12,0-.23-.05-.33-.15-.09-.1-.14-.21-.14-.34,0-.12.05-.23.15-.33.1-.1.21-.14.33-.14Z" style="fill: #425497;"/>
    <path d="M61.22,34.05h.81s-.11,6.24-.11,6.24h-.81s.11-6.24.11-6.24Z" style="fill: #425497;"/>
    <path d="M63.32,34.02h.81s-.04,2.43-.04,2.43c.35-.25.73-.37,1.13-.36.52,0,.94.21,1.26.61.32.4.48.9.47,1.52-.01.66-.22,1.18-.62,1.56-.4.38-.93.57-1.59.56-.26,0-.54-.04-.83-.1-.29-.06-.52-.14-.69-.23l.1-5.99ZM64.08,37.23l-.04,2.22c.27.09.56.13.85.14.36,0,.65-.12.89-.37s.35-.58.36-.98c0-.41-.09-.74-.3-1s-.48-.39-.82-.4c-.3,0-.61.12-.93.39Z" style="fill: #425497;"/>
    <path d="M70,36.17c.62.01,1.14.22,1.54.63.41.41.6.92.59,1.53-.01.59-.23,1.08-.65,1.46-.43.38-.96.57-1.59.56-.61-.01-1.12-.22-1.53-.62-.41-.4-.6-.9-.59-1.5.01-.6.23-1.1.65-1.49.42-.39.95-.58,1.58-.57ZM69.94,36.9c-.39,0-.71.12-.96.37-.25.25-.38.57-.39.97,0,.39.12.71.37.97s.58.38.98.39c.4,0,.73-.11.98-.36.26-.25.39-.57.4-.96,0-.39-.12-.71-.38-.97-.26-.26-.59-.39-.99-.4Z" style="fill: #425497;"/>
    <path d="M76.06,36.2l1.04.02-1.72,1.99,1.77,2.11-1.04-.02-1.26-1.49-1.24,1.45-1.02-.02,1.76-2.05-1.69-2.05,1.02.02,1.19,1.43,1.19-1.39Z" style="fill: #425497;"/>
    <path d="M80.66,36.17h.81s-.07,4.11-.07,4.11h-.81s.07-4.11.07-4.11ZM81.09,34.45c.13,0,.25.05.34.14.09.09.14.21.14.34,0,.13-.05.24-.15.34-.1.09-.21.14-.35.14-.12,0-.23-.05-.33-.15-.09-.1-.14-.21-.14-.34,0-.12.05-.23.15-.33.1-.1.21-.14.33-.14Z" style="fill: #425497;"/>
    <path d="M83.61,36.16v.52c.36-.39.77-.59,1.24-.58.26,0,.49.07.71.21.22.14.38.32.49.55.11.23.16.6.15,1.1l-.04,2.34h-.81s.04-2.35.04-2.35c0-.42-.05-.72-.18-.9-.12-.18-.34-.27-.64-.28-.38,0-.71.18-.99.56l-.05,2.93h-.83s.07-4.11.07-4.11h.83Z" style="fill: #425497;"/>
    <path d="M87.25,39.96v-.87c.24.16.47.3.71.4.24.1.44.16.6.16.17,0,.32-.04.44-.12s.19-.18.19-.3c0-.12-.04-.22-.11-.3-.08-.08-.25-.2-.5-.35-.52-.3-.86-.55-1.01-.76-.16-.21-.24-.43-.23-.68,0-.31.13-.57.38-.76.25-.2.57-.29.95-.28.4,0,.81.13,1.23.36v.8c-.49-.3-.88-.45-1.19-.46-.16,0-.29.03-.38.09-.1.07-.15.15-.15.26,0,.1.04.19.13.27.09.09.24.19.46.32l.29.17c.68.4,1.01.83,1,1.3,0,.34-.14.61-.41.82-.27.21-.61.31-1.02.31-.24,0-.46-.03-.65-.09-.19-.05-.43-.16-.71-.3Z" style="fill: #425497;"/>
    <path d="M90.6,36.8l1.55-1.47v.85s1.28.02,1.28.02v.73s-1.31-.02-1.31-.02l-.03,2c0,.47.18.71.57.71.29,0,.6-.09.93-.27v.76c-.33.17-.67.25-1.04.24-.37,0-.68-.12-.92-.34-.08-.07-.14-.14-.19-.22-.05-.08-.09-.19-.12-.32-.03-.13-.04-.38-.04-.76l.03-1.82h-.71s0-.09,0-.09Z" style="fill: #425497;"/>
    <path d="M96.93,37.83l-.03,1.74c0,.14.04.21.14.21.1,0,.25-.07.46-.21v.49c-.2.12-.34.19-.46.24s-.23.06-.35.06c-.35,0-.55-.15-.61-.42-.35.26-.72.39-1.11.38-.29,0-.52-.1-.71-.29-.19-.19-.28-.43-.27-.72,0-.26.1-.49.29-.69.19-.2.46-.36.8-.47l1.04-.34v-.22c.01-.49-.23-.74-.72-.75-.44,0-.88.21-1.3.66l.02-.89c.32-.37.78-.54,1.37-.53.44,0,.8.13,1.06.37.09.08.17.18.24.3.07.12.11.25.13.37.02.12.02.36.02.7ZM96.11,39.47l.02-1.22-.55.2c-.28.11-.48.21-.59.32-.12.11-.18.25-.18.41,0,.17.05.31.16.42.11.11.25.16.42.17.26,0,.5-.1.72-.3Z" style="fill: #425497;"/>
    <path d="M98.49,34.05h.81s-.11,6.24-.11,6.24h-.81s.11-6.24.11-6.24Z" style="fill: #425497;"/>
    <path d="M100.65,34.05h.81s-.11,6.24-.11,6.24h-.81s.11-6.24.11-6.24Z" style="fill: #425497;"/>
    <path d="M105.3,37.83l-.03,1.74c0,.14.04.21.14.21.1,0,.25-.07.46-.21v.49c-.19.12-.34.19-.46.24s-.23.06-.35.06c-.35,0-.55-.15-.61-.42-.35.26-.72.39-1.11.38-.29,0-.52-.1-.71-.29-.19-.19-.28-.43-.27-.72,0-.26.1-.49.29-.69.19-.2.46-.36.8-.47l1.04-.34v-.22c.01-.49-.23-.74-.72-.75-.44,0-.88.21-1.3.66l.02-.89c.32-.37.78-.54,1.37-.53.44,0,.8.13,1.06.37.09.08.17.18.24.3.07.12.11.25.13.37.02.12.02.36.02.7ZM104.47,39.47l.02-1.22-.55.2c-.28.11-.48.21-.59.32-.12.11-.18.25-.18.41,0,.17.05.31.16.42.11.11.25.16.42.17.26,0,.5-.1.72-.3Z" style="fill: #425497;"/>
    <path d="M106.22,36.8l1.55-1.47v.85s1.28.02,1.28.02v.73s-1.31-.02-1.31-.02l-.04,2c0,.47.18.71.57.71.29,0,.6-.09.93-.27v.76c-.33.17-.67.25-1.04.24-.37,0-.68-.12-.92-.34-.08-.07-.14-.14-.19-.22-.05-.08-.09-.19-.12-.32-.03-.13-.04-.38-.04-.76l.03-1.82h-.71s0-.09,0-.09Z" style="fill: #425497;"/>
    <path d="M110.02,36.17h.81s-.07,4.11-.07,4.11h-.81s.07-4.11.07-4.11ZM110.45,34.45c.13,0,.25.05.34.14.09.09.14.21.14.34,0,.13-.05.24-.15.34-.1.09-.21.14-.35.14-.12,0-.23-.05-.33-.15-.09-.1-.14-.21-.14-.34,0-.12.05-.23.15-.33.1-.1.21-.14.33-.14Z" style="fill: #425497;"/>
    <path d="M114.12,36.17c.62.01,1.14.22,1.54.63.41.41.6.92.59,1.53-.01.59-.23,1.08-.65,1.46-.43.38-.96.57-1.59.56-.61-.01-1.12-.22-1.53-.62-.41-.4-.6-.9-.59-1.5.01-.6.23-1.1.65-1.49.42-.39.95-.58,1.58-.57ZM114.06,36.9c-.39,0-.71.12-.96.37-.25.25-.38.57-.39.97,0,.39.12.71.37.97s.58.38.98.39c.4,0,.73-.11.98-.36.26-.25.39-.57.4-.96,0-.39-.12-.71-.38-.97-.26-.26-.59-.39-.99-.4Z" style="fill: #425497;"/>
    <path d="M118.16,36.16v.52c.36-.39.77-.59,1.23-.58.26,0,.49.07.71.21.22.14.38.32.49.55.11.23.16.6.15,1.1l-.04,2.34h-.81s.04-2.35.04-2.35c0-.42-.05-.72-.18-.9-.12-.18-.34-.27-.64-.28-.38,0-.71.18-.99.56l-.05,2.93h-.83s.07-4.11.07-4.11h.83Z" style="fill: #425497;"/>
    <path d="M124.92,42.37l.14-8.32h.7s-.14,8.33-.14,8.33h-.7Z" style="fill: #425497;"/>
    <path d="M133,39.35v.8c-.42.14-.82.21-1.21.21-.64-.01-1.15-.21-1.52-.6s-.56-.9-.55-1.54c.01-.64.21-1.16.58-1.55.38-.39.87-.58,1.48-.57.21,0,.4.03.57.07s.37.12.62.24v.86c-.42-.27-.8-.41-1.15-.41-.37,0-.67.12-.91.37-.24.25-.36.58-.37.98,0,.42.11.75.36,1s.59.38,1.02.39c.31,0,.67-.08,1.08-.25Z" style="fill: #425497;"/>
    <path d="M136.1,36.17c.62.01,1.14.22,1.54.63.41.41.6.92.59,1.53,0,.59-.23,1.08-.65,1.46s-.96.57-1.59.56c-.61-.01-1.13-.22-1.53-.62-.41-.4-.6-.9-.59-1.5.01-.6.23-1.1.65-1.49s.95-.58,1.58-.57ZM136.04,36.9c-.39,0-.71.12-.96.37-.25.25-.38.57-.39.97,0,.39.12.71.37.97s.58.38.98.39c.4,0,.73-.11.98-.36s.39-.57.4-.96c0-.39-.12-.71-.38-.97-.26-.26-.59-.39-.99-.4Z" style="fill: #425497;"/>
    <path d="M142.67,37.31l-.05,2.98h-.81s.04-2.29.04-2.29c0-.45-.05-.77-.17-.95-.12-.18-.33-.28-.63-.28-.17,0-.33.03-.47.11-.14.07-.31.21-.49.4l-.05,2.97h-.81s.07-4.11.07-4.11h.81s0,.55,0,.55c.42-.41.83-.6,1.22-.6.52,0,.92.26,1.19.76.44-.49.9-.73,1.37-.72.4,0,.72.16.97.45s.37.74.36,1.34l-.04,2.42h-.81s.04-2.44.04-2.44c0-.34-.06-.6-.2-.79-.14-.18-.34-.28-.6-.28-.34,0-.65.16-.95.49Z" style="fill: #425497;"/>
    <path d="M149.86,37.31l-.05,2.98h-.81s.04-2.29.04-2.29c0-.45-.05-.77-.17-.95-.12-.18-.33-.28-.63-.28-.17,0-.33.03-.47.11-.14.07-.31.21-.49.4l-.05,2.97h-.81s.07-4.11.07-4.11h.81s0,.55,0,.55c.42-.41.83-.6,1.22-.6.52,0,.92.26,1.19.76.44-.49.9-.73,1.37-.72.4,0,.72.16.97.45s.37.74.36,1.34l-.04,2.42h-.81s.04-2.44.04-2.44c0-.34-.06-.6-.2-.79-.14-.18-.34-.28-.6-.28-.34,0-.65.16-.95.49Z" style="fill: #425497;"/>
    <path d="M157.17,38.33l-2.88-.05c.01.39.14.71.38.94.24.24.55.36.93.36.53,0,1.03-.15,1.49-.47v.79c-.27.16-.52.28-.76.34-.25.07-.53.1-.86.09-.45,0-.81-.11-1.09-.3-.28-.19-.5-.45-.66-.77-.16-.32-.24-.69-.23-1.1.01-.62.2-1.13.56-1.51.36-.38.82-.57,1.39-.56.54,0,.97.21,1.29.59.32.39.47.9.46,1.54v.1ZM154.31,37.79l2.06.04c-.01-.32-.11-.58-.28-.75s-.4-.27-.69-.27-.53.08-.72.25c-.19.17-.31.42-.38.74Z" style="fill: #425497;"/>
    <path d="M159.11,36.17l-.02.94.05-.07c.4-.63.8-.93,1.19-.93.31,0,.62.17.95.48l-.44.7c-.28-.27-.54-.41-.78-.41-.26,0-.49.12-.69.36-.2.25-.3.54-.3.88l-.04,2.14h-.81s.07-4.11.07-4.11h.82Z" style="fill: #425497;"/>
    <path d="M165.03,39.35v.8c-.42.14-.82.21-1.21.21-.64-.01-1.15-.21-1.52-.6s-.56-.9-.55-1.54c.01-.64.21-1.16.58-1.55s.87-.58,1.47-.57c.21,0,.4.03.57.07s.37.12.62.24l-.02.86c-.41-.27-.78-.41-1.13-.41-.37,0-.67.12-.91.37-.24.25-.36.58-.37.98,0,.42.11.75.36,1s.59.38,1.02.39c.31,0,.67-.08,1.08-.25Z" style="fill: #425497;"/>
    <path d="M166.18,36.17h.81s-.07,4.11-.07,4.11h-.81s.07-4.11.07-4.11ZM166.61,34.45c.13,0,.25.05.34.14.09.09.14.21.14.34,0,.13-.05.24-.15.34-.1.09-.21.14-.35.14-.12,0-.23-.05-.33-.15-.09-.1-.14-.21-.14-.34,0-.12.05-.23.15-.33.1-.1.21-.14.33-.14Z" style="fill: #425497;"/>
    <path d="M170.87,37.83l-.03,1.74c0,.14.04.21.14.21.1,0,.25-.07.46-.21v.49c-.2.12-.34.19-.46.24s-.23.06-.35.06c-.35,0-.55-.15-.61-.42-.35.26-.72.39-1.11.38-.29,0-.52-.1-.71-.29-.19-.19-.28-.43-.27-.72,0-.26.1-.49.29-.69.19-.2.46-.36.8-.47l1.04-.34v-.22c.01-.49-.23-.74-.72-.75-.44,0-.88.21-1.3.66l.02-.89c.32-.37.78-.54,1.37-.53.44,0,.8.13,1.06.37.09.08.17.18.24.3.07.12.11.25.13.37.02.12.02.36.02.7ZM170.04,39.47l.02-1.22-.55.2c-.28.11-.48.21-.59.32-.12.11-.18.25-.18.41,0,.17.05.31.16.42.11.11.25.16.42.17.26,0,.5-.1.72-.3Z" style="fill: #425497;"/>
    <path d="M172.43,34.05h.81s-.11,6.24-.11,6.24h-.81s.11-6.24.11-6.24Z" style="fill: #425497;"/>
    <path d="M173.91,40.33l1.9-6.36h.64s-1.9,6.37-1.9,6.37h-.65Z" style="fill: #425497;"/>
    <path d="M178.12,36.17l-.02.94.05-.07c.4-.63.8-.93,1.19-.93.31,0,.62.17.95.48l-.44.7c-.28-.27-.54-.41-.78-.41-.26,0-.49.12-.69.36-.2.25-.3.54-.3.88l-.04,2.14h-.81s.07-4.11.07-4.11h.82Z" style="fill: #425497;"/>
    <path d="M184.48,38.33l-2.88-.05c.01.39.14.71.38.94.24.24.55.36.93.36.53,0,1.03-.15,1.49-.47v.79c-.27.16-.52.28-.76.34-.25.07-.53.1-.86.09-.45,0-.82-.11-1.09-.3-.28-.19-.5-.45-.66-.77-.16-.32-.24-.69-.23-1.1.01-.62.2-1.13.56-1.51.36-.38.82-.57,1.39-.56.54,0,.97.21,1.29.59.32.39.47.9.46,1.54v.1ZM181.62,37.79l2.06.04c-.01-.32-.11-.58-.28-.75-.17-.18-.4-.27-.69-.27s-.53.08-.72.25c-.19.17-.31.42-.38.74Z" style="fill: #425497;"/>
    <path d="M185.28,39.96l.02-.87c.23.16.46.3.69.4.24.1.44.16.6.16.17,0,.32-.04.44-.12.12-.08.19-.18.19-.3,0-.12-.03-.22-.11-.3-.08-.08-.24-.2-.5-.35-.52-.3-.86-.55-1.01-.76-.16-.21-.23-.43-.23-.68,0-.31.13-.57.38-.76.25-.2.57-.29.95-.28.4,0,.81.13,1.23.36v.8c-.49-.3-.88-.45-1.19-.46-.16,0-.29.03-.38.09-.1.07-.15.15-.15.26,0,.1.04.19.13.27.09.09.24.19.46.32l.29.17c.68.4,1.01.83,1,1.3,0,.34-.14.61-.41.82-.27.21-.61.31-1.02.31-.24,0-.46-.03-.65-.09-.19-.05-.43-.16-.71-.3Z" style="fill: #425497;"/>
    <path d="M189.24,36.17h.81s-.07,4.11-.07,4.11h-.81s.07-4.11.07-4.11ZM189.67,34.45c.13,0,.25.05.34.14.09.09.14.21.14.34,0,.13-.05.24-.15.34s-.21.14-.35.14c-.12,0-.23-.05-.33-.15-.09-.1-.14-.21-.14-.34,0-.12.05-.23.15-.33.1-.1.21-.14.33-.14Z" style="fill: #425497;"/>
    <path d="M194.15,34.07h.82s-.11,6.24-.11,6.24l-1.73-.03c-.61-.01-1.09-.21-1.44-.6-.35-.39-.53-.91-.51-1.55.01-.6.21-1.09.59-1.48s.87-.57,1.46-.56c.27,0,.57.07.89.19l.04-2.21ZM194.05,39.6l.05-2.6c-.25-.13-.5-.2-.76-.2-.4,0-.73.12-.97.38s-.37.61-.38,1.06c0,.42.09.75.29.98.12.14.25.23.39.28s.39.08.75.08h.63Z" style="fill: #425497;"/>
    <path d="M199.64,38.33l-2.88-.05c.01.39.14.71.38.94.24.24.55.36.93.36.53,0,1.03-.15,1.49-.47v.79c-.27.16-.52.28-.76.34-.25.07-.53.1-.86.09-.45,0-.81-.11-1.09-.3-.28-.19-.5-.45-.66-.77-.16-.32-.24-.69-.23-1.1.01-.62.2-1.13.56-1.51.36-.38.82-.57,1.39-.56.54,0,.97.21,1.29.59.32.39.47.9.46,1.54v.1ZM196.78,37.79l2.06.04c-.01-.32-.11-.58-.28-.75s-.4-.27-.69-.27-.53.08-.72.25c-.19.17-.31.42-.38.74Z" style="fill: #425497;"/>
    <path d="M201.52,36.16v.52c.36-.39.77-.59,1.24-.58.26,0,.49.07.71.21.22.14.38.32.49.55s.16.6.15,1.1l-.04,2.34h-.81s.04-2.35.04-2.35c0-.42-.05-.72-.18-.9-.12-.18-.34-.27-.64-.28-.38,0-.71.18-.99.56l-.05,2.93h-.83s.07-4.11.07-4.11h.83Z" style="fill: #425497;"/>
    <path d="M204.85,36.8l1.55-1.47v.85s1.28.02,1.28.02v.73s-1.31-.02-1.31-.02l-.03,2c0,.47.18.71.57.71.29,0,.6-.09.93-.27v.76c-.33.17-.67.25-1.04.24-.37,0-.68-.12-.92-.34-.08-.07-.14-.14-.19-.22-.05-.08-.09-.19-.12-.32-.03-.13-.04-.38-.04-.76l.03-1.82h-.71s0-.09,0-.09Z" style="fill: #425497;"/>
    <path d="M208.65,36.17h.81s-.07,4.11-.07,4.11h-.81s.07-4.11.07-4.11ZM209.08,34.45c.13,0,.25.05.34.14.09.09.14.21.14.34,0,.13-.05.24-.15.34-.1.09-.21.14-.35.14-.12,0-.23-.05-.33-.15-.09-.1-.14-.21-.14-.34,0-.12.05-.23.15-.33.1-.1.21-.14.33-.14Z" style="fill: #425497;"/>
    <path d="M213.33,37.83l-.03,1.74c0,.14.04.21.14.21.1,0,.25-.07.46-.21v.49c-.19.12-.34.19-.46.24-.11.04-.23.06-.35.06-.35,0-.55-.15-.61-.42-.35.26-.72.39-1.11.38-.29,0-.52-.1-.71-.29-.19-.19-.28-.43-.27-.72,0-.26.1-.49.29-.69s.46-.36.8-.47l1.04-.34v-.22c.01-.49-.23-.74-.72-.75-.44,0-.88.21-1.3.66l.02-.89c.32-.37.78-.54,1.37-.53.44,0,.8.13,1.06.37.09.08.17.18.24.3.07.12.11.25.13.37.02.12.02.36.02.7ZM212.51,39.47l.02-1.22-.55.2c-.28.11-.48.21-.59.32-.12.11-.18.25-.18.41,0,.17.05.31.16.42.11.11.25.16.42.17.26,0,.5-.1.72-.3Z" style="fill: #425497;"/>
    <path d="M214.89,34.05h.81s-.11,6.24-.11,6.24h-.81s.11-6.24.11-6.24Z" style="fill: #425497;"/>
  </g>
</svg>